<svg width="1280" height="179" viewBox="0 0 1280 179" fill="none" xmlns="http://www.w3.org/2000/svg">
<path opacity="0.35" d="M1280.56 18.5001C1184.56 60.1668 931.86 143.1 689.06 141.5C385.56 139.5 330.56 -9.99996 99.0599 43C-62.9282 80.0858 -109.982 106.359 -115.44 118.273L-115.44 122.5C-116.15 121.393 -116.222 119.98 -115.44 118.273L-115.44 -74.5L1280.56 -74.4999L1280.56 18.5001Z" fill="#1A2C86"/>
<path d="M1131.06 131.5C1300.26 93.5001 1377.56 -22.6665 1395.06 -75.9999L-105.44 -76L-105.44 179C-0.94012 130.667 262.56 41.4 480.56 71.0001C753.06 108 919.56 179 1131.06 131.5Z" fill="#1A2C86" fill-opacity="0.5"/>
</svg>
